<svg width="181" height="160" viewBox="0 0 181 160" fill="none" xmlns="http://www.w3.org/2000/svg">
<path d="M31.083 56.2114H33.4876L41.7577 78.528L49.9497 55.7727L58.376 78.487L66.1487 56.2114H66.7447L57.5087 82.71L49.0084 59.8974L40.874 82.71L31.083 56.2114Z" fill="white"/>
<path fill-rule="evenodd" clip-rule="evenodd" d="M30.6013 55.8768H33.7209L41.7527 77.5503L49.9446 54.7955L58.3659 77.4964L65.9098 55.8768H67.2163L57.5188 83.6992L49.015 60.8769L40.8792 83.6932L30.6013 55.8768ZM49.008 59.8974L57.5083 82.7101L66.7443 56.2115H66.1483L58.3756 78.487L49.9493 55.7728L41.7573 78.528L33.4872 56.2115H31.0826L40.8736 82.7101L49.008 59.8974Z" fill="white"/>
<path d="M72.0591 56.2117H86.4249V56.7488H74.365V68.7004H84.5629V69.2416H74.365V81.7304H86.4249V82.2675H72.0591V56.2117Z" fill="white"/>
<path fill-rule="evenodd" clip-rule="evenodd" d="M71.7234 55.877H86.7603V57.0835H74.7005V68.3657H84.8983V69.5764H74.7005V81.3956H86.7603V82.6022H71.7234V55.877ZM74.3649 81.7303V69.2416H84.5627V68.7004H74.3649V56.7488H86.4248V56.2117H72.059V82.2674H86.4248V81.7303H74.3649Z" fill="white"/>
<path d="M90.0831 78.9464C90.0831 78.9464 92.9604 82.0378 97.2969 82.0378C100.836 82.0378 103.82 79.9263 103.82 76.8553C103.82 73.7844 101.181 71.964 97.8271 69.7007C94.473 67.4375 90.7285 65.4613 90.7285 61.681C90.7285 57.7286 94.5758 55.8467 98.1272 55.8467C99.8442 55.8588 101.54 56.2245 103.109 56.9209V58.0935C101.652 57.0217 99.8997 56.4246 98.0902 56.3838C95.3403 56.3838 92.2822 57.9582 92.2822 60.7954C92.2822 63.4072 94.8964 64.9406 98.1683 66.9004C102.246 69.3604 105.748 71.6975 105.748 75.7442C105.748 80.7709 100.939 82.5749 97.227 82.5749C94.6547 82.5924 92.1473 81.7702 90.0872 80.2338L90.0831 78.9464Z" fill="white"/>
<path fill-rule="evenodd" clip-rule="evenodd" d="M90.329 78.7184L90.3291 78.7186L90.3299 78.7193L90.3347 78.7245C90.3394 78.7294 90.3468 78.737 90.3568 78.7473C90.377 78.7679 90.4079 78.799 90.4492 78.8392C90.532 78.9194 90.6563 79.0355 90.8195 79.1757C91.146 79.4561 91.6268 79.8314 92.2395 80.2068C93.4667 80.9587 95.2094 81.703 97.2969 81.703C100.738 81.703 103.484 79.665 103.484 76.8553C103.484 75.4312 102.878 74.2872 101.839 73.2068C100.79 72.1156 99.324 71.1148 97.6391 69.9779C97.269 69.7282 96.8908 69.48 96.5113 69.2309C95.1955 68.3673 93.8635 67.4931 92.7923 66.5056C91.399 65.2211 90.3929 63.6994 90.3929 61.681C90.3929 59.5791 91.4227 58.0236 92.9059 57.0059C94.3788 55.9953 96.2986 55.5119 98.1272 55.5119H98.1284L98.1296 55.5119C99.8928 55.5244 101.634 55.9 103.245 56.6151L103.445 56.7035V58.7564L102.91 58.3628C101.51 57.3327 99.8255 56.7585 98.0864 56.7185C96.7704 56.7192 95.3877 57.0976 94.3431 57.8028C93.3034 58.5048 92.6178 59.5136 92.6178 60.7954C92.6178 61.9707 93.1991 62.9236 94.2229 63.8437C95.2351 64.7532 96.6369 65.5927 98.2417 66.5539L98.342 66.614C100.377 67.8417 102.307 69.0605 103.726 70.4919C105.154 71.9332 106.083 73.6092 106.083 75.7442C106.083 78.3846 104.811 80.192 103.062 81.3252C101.328 82.4486 99.1297 82.9094 97.2282 82.9096C97.2278 82.9096 97.2274 82.9096 97.227 82.9096V82.5748L97.2293 82.9095C97.2289 82.9095 97.2286 82.9096 97.2282 82.9096C94.5831 82.9273 92.0048 82.0818 89.8863 80.5018L89.7522 80.4018L89.7449 78.0908L90.329 78.7184ZM102.773 57.8584C102.887 57.934 102.999 58.0124 103.109 58.0935H102.773V57.8584ZM103.109 57.6816C103.176 57.7282 103.242 57.7757 103.308 57.8241L103.109 58.0935V57.6816ZM90.4198 79.2702L90.4188 78.9452L90.0832 78.9463C89.8372 79.174 89.8373 79.1741 89.8374 79.1742L89.8384 79.1753L89.8407 79.1777L89.8484 79.1858C89.8549 79.1927 89.8642 79.2023 89.8763 79.2147C89.9004 79.2394 89.9355 79.2747 89.9813 79.3191C90.0112 79.3481 90.0457 79.381 90.0847 79.4174M90.0847 79.4174L90.0832 78.9463C90.0832 78.9463 90.1992 79.071 90.4198 79.2702" fill="white"/>
<path d="M114.861 56.7488H106.553V56.2117H125.461V56.7488H117.15V82.2675H114.861V56.7488Z" fill="white"/>
<path fill-rule="evenodd" clip-rule="evenodd" d="M106.218 57.0835V55.877H125.797V57.0835H117.486V82.6022H114.525V57.0835H106.218ZM114.861 56.7488V82.2674H117.15V56.7488H125.461V56.2117H106.553V56.7488H114.861Z" fill="white"/>
<path d="M83.2846 31.0538C83.2846 26.6832 81.1842 24.7439 78.3028 24.7439C73.9335 24.7439 72.3962 29.2539 72.3962 29.2539V27.5237C72.3962 27.5237 74.0897 24.1904 78.8002 24.1904C83.5107 24.1904 85.6851 27.5073 85.6851 31.308C85.6851 40.0575 73.9746 48.6348 73.9746 48.6348H87.9622L87.1771 50.7422H70.8014C70.8014 50.7422 83.2846 41.1317 83.2846 31.0374" fill="white"/>
<path fill-rule="evenodd" clip-rule="evenodd" d="M72.7317 28.4957C72.5003 28.9481 72.3961 29.2539 72.3961 29.2539V27.5237C72.3961 27.5237 74.0896 24.1904 78.8001 24.1904C83.5106 24.1904 85.685 27.5073 85.685 31.308C85.685 39.0401 76.5396 46.6377 74.4127 48.3001C74.1328 48.5188 73.9745 48.6348 73.9745 48.6348H87.9622L87.1771 50.7422H70.8013C70.8013 50.7422 70.9514 50.6266 71.2188 50.4075C73.3879 48.6295 83.2725 40.0352 83.2845 31.0538C83.2845 31.051 83.2845 31.0482 83.2845 31.0454C83.2845 31.0427 83.2845 31.0401 83.2845 31.0374C83.2793 26.6783 81.1805 24.7439 78.3027 24.7439C75.0712 24.7439 73.3888 27.2109 72.7317 28.4957ZM82.949 31.0454C82.9476 28.9137 82.4343 27.427 81.6193 26.4776C80.809 25.5338 79.6642 25.0786 78.3027 25.0786C76.2498 25.0786 74.8599 26.1334 73.97 27.2116C73.5246 27.7513 73.2089 28.2925 73.0046 28.6992C72.9027 28.9021 72.829 29.0704 72.7813 29.1868C72.7574 29.245 72.7401 29.2901 72.7289 29.32C72.7234 29.335 72.7193 29.3461 72.7168 29.3531L72.7142 29.3606L72.7138 29.3617L72.7137 29.3619C72.7138 29.3619 72.7138 29.3618 72.7127 29.3615L72.0605 29.2539V27.4437L72.0968 27.3724L72.3961 27.5237C72.0968 27.3724 72.0969 27.3722 72.097 27.372L72.0972 27.3716L72.0978 27.3705L72.0994 27.3673C72.1007 27.3648 72.1024 27.3616 72.1045 27.3575C72.1088 27.3494 72.1149 27.3382 72.1227 27.3241C72.1383 27.296 72.1611 27.2563 72.1913 27.2067C72.2516 27.1076 72.3419 26.9687 72.4648 26.8035C72.7104 26.4732 73.0875 26.0357 73.618 25.5989C74.683 24.7221 76.3579 23.8556 78.8001 23.8556C81.2408 23.8556 83.0591 24.7185 84.2627 26.1048C85.4599 27.4838 86.0206 29.3475 86.0206 31.308C86.0206 35.8161 83.0149 40.2295 80.079 43.4766C78.6031 45.1089 77.1284 46.4645 76.0229 47.4118C75.6079 47.7674 75.2446 48.0658 74.9524 48.3001H88.4449L87.4104 51.0769H69.8173L70.5962 50.4772L70.5973 50.4786C70.5962 50.4772 70.5962 50.4772 70.5962 50.4772L70.5965 50.477L70.598 50.4759L70.6042 50.4711C70.6099 50.4667 70.6184 50.46 70.6299 50.451C70.6528 50.4331 70.6871 50.4061 70.732 50.3703C70.8219 50.2987 70.9544 50.1918 71.1234 50.0519C71.4614 49.7722 71.9452 49.3606 72.5263 48.8349C73.689 47.7831 75.2385 46.2768 76.7872 44.4585C79.8953 40.8089 82.9457 35.9647 82.949 31.0454Z" fill="white"/>
<path d="M102.213 31.0538C102.213 26.6832 100.117 24.7439 97.2311 24.7439C92.8658 24.7439 91.3244 29.2539 91.3244 29.2539V27.5237C91.3244 27.5237 93.0179 24.1904 97.7325 24.1904C102.447 24.1904 104.617 27.5073 104.617 31.308C104.617 40.0575 92.9028 48.6348 92.9028 48.6348H106.907L106.118 50.7422H89.7296C89.7296 50.7422 102.213 41.1317 102.213 31.0374" fill="white"/>
<path fill-rule="evenodd" clip-rule="evenodd" d="M91.6603 28.4969C91.429 28.9486 91.3247 29.2539 91.3247 29.2539V27.5237C91.3247 27.5237 93.0182 24.1904 97.7328 24.1904C102.447 24.1904 104.618 27.5073 104.618 31.308C104.618 39.0401 95.4691 46.6377 93.3415 48.3001C93.0615 48.5188 92.9031 48.6348 92.9031 48.6348H106.907L106.118 50.7422H89.7299C89.7299 50.7422 89.88 50.6266 90.1474 50.4075C92.3165 48.6295 102.201 40.0352 102.213 31.0538C102.213 31.051 102.213 31.0482 102.213 31.0454C102.213 31.0427 102.213 31.0401 102.213 31.0374C102.208 26.6783 100.113 24.7439 97.2313 24.7439C94.0018 24.7439 92.3179 27.2125 91.6603 28.4969ZM101.878 31.0454C101.876 28.9135 101.364 27.4268 100.549 26.4775C99.7397 25.5339 98.595 25.0786 97.2313 25.0786C95.1805 25.0786 93.7905 26.1333 92.9001 27.2117C92.4544 27.7515 92.1383 28.2927 91.9337 28.6993C91.8316 28.9023 91.7578 29.0706 91.71 29.1871C91.6861 29.2452 91.6687 29.2904 91.6575 29.3203C91.6519 29.3352 91.6479 29.3463 91.6453 29.3534L91.6427 29.3608L91.6423 29.3619L91.6422 29.3621C91.6423 29.3621 91.6423 29.3621 91.6412 29.3617L90.9891 29.2539V27.4437L91.0254 27.3724L91.3247 27.5237C91.0254 27.3724 91.0254 27.3722 91.0255 27.372L91.0258 27.3716L91.0263 27.3705L91.028 27.3673C91.0293 27.3648 91.031 27.3616 91.0331 27.3575C91.0374 27.3494 91.0435 27.3382 91.0513 27.3241C91.0669 27.2959 91.0897 27.2562 91.1199 27.2067C91.1802 27.1075 91.2705 26.9687 91.3935 26.8034C91.6391 26.4731 92.0164 26.0356 92.5472 25.5988C93.6127 24.722 95.2886 23.8556 97.7328 23.8556C100.176 23.8556 101.994 24.7185 103.197 26.1049C104.394 27.4839 104.953 29.3477 104.953 31.308C104.953 35.8161 101.946 40.2295 99.0096 43.4767C97.5332 45.109 96.058 46.4645 94.9521 47.4118C94.537 47.7675 94.1736 48.0658 93.8813 48.3001H107.391L106.351 51.0769H88.7458L89.5248 50.4772L89.5259 50.4786C89.5248 50.4772 89.5248 50.4772 89.5248 50.4772L89.5251 50.477L89.5266 50.4759L89.5328 50.4711C89.5384 50.4667 89.547 50.46 89.5585 50.451C89.5814 50.4331 89.6157 50.4061 89.6606 50.3703C89.7505 50.2987 89.883 50.1918 90.052 50.0519C90.39 49.7722 90.8738 49.3606 91.4549 48.8349C92.6176 47.7831 94.1671 46.2768 95.7157 44.4585C98.8239 40.8089 101.874 35.9647 101.878 31.0454Z" fill="white"/>
<path d="M109.295 47.6506C110.1 48.611 111.106 49.3838 112.242 49.9144C113.378 50.445 114.617 50.7205 115.872 50.7215C120.336 50.7215 123.065 47.3841 123.065 42.0294C123.065 36.5067 120.163 33.1856 115.778 33.1856C113.43 33.1856 111.046 34.145 109.813 36.2361H109.337L111.03 24.7231H123.476L122.724 26.8347H111.215L110.06 35.1619C110.812 34.2598 112.637 32.6485 116.041 32.6485C121.487 32.6485 125.466 36.5641 125.466 41.8367C125.466 46.0967 122.851 51.2668 116.012 51.2668C111.396 51.2668 109.3 48.9257 109.3 48.9257L109.295 47.6506Z" fill="white"/>
<path fill-rule="evenodd" clip-rule="evenodd" d="M108.957 46.7242L109.553 47.436C110.326 48.3589 111.292 49.1014 112.384 49.6113C113.476 50.1211 114.667 50.3858 115.872 50.3868C118.013 50.3867 119.713 49.5903 120.883 48.1708C122.061 46.7436 122.73 44.6537 122.73 42.0294C122.73 39.3236 122.019 37.196 120.809 35.7511C119.604 34.3125 117.879 33.5204 115.778 33.5204C113.511 33.5204 111.258 34.4464 110.103 36.4058L110.005 36.5708H108.948L110.74 24.3884H123.952L122.961 27.1694H111.507L110.531 34.2061C111.561 33.3103 113.321 32.3138 116.041 32.3138C121.666 32.3138 125.801 36.3729 125.801 41.8367C125.801 44.0288 125.13 46.4662 123.563 48.3622C121.987 50.2686 119.526 51.6016 116.012 51.6016C113.644 51.6016 111.912 51.0006 110.767 50.3917C110.195 50.0876 109.77 49.7823 109.487 49.5505C109.345 49.4345 109.238 49.3369 109.165 49.2669C109.129 49.2319 109.101 49.2037 109.082 49.1836C109.072 49.1736 109.065 49.1656 109.059 49.1597L109.053 49.1525L109.051 49.1502L109.05 49.1493L109.05 49.149C109.049 49.1488 109.049 49.1487 109.3 48.9257C109.3 48.9257 111.396 51.2668 116.012 51.2668C122.852 51.2668 125.466 46.0967 125.466 41.8367C125.466 36.5641 121.487 32.6485 116.041 32.6485C113.133 32.6485 111.378 33.8245 110.459 34.7295C110.302 34.8839 110.17 35.0304 110.06 35.1619L111.215 26.8347H122.724L123.476 24.7232H111.03L109.337 36.2361H109.813C111.046 34.1451 113.43 33.1857 115.778 33.1857C120.163 33.1857 123.065 36.5067 123.065 42.0294C123.065 47.3841 120.336 50.7215 115.872 50.7215C114.617 50.7205 113.378 50.445 112.242 49.9144C111.259 49.4555 110.374 48.8154 109.632 48.0294C109.516 47.9066 109.404 47.7803 109.295 47.6506L109.3 48.9257L109.049 49.1487L108.964 49.0539L108.957 46.7242Z" fill="white"/>
<path d="M83.2846 93.1119C83.2846 88.7372 81.1842 86.7979 78.3028 86.7979C73.9335 86.7979 72.3962 91.3079 72.3962 91.3079V89.5818C72.3962 89.5818 74.0897 86.2649 78.8002 86.2649C83.5107 86.2649 85.6851 89.5818 85.6851 93.3825C85.6851 102.132 73.9869 110.701 73.9869 110.701H87.9622L87.1771 112.813H70.8014C70.8014 112.813 83.2846 103.202 83.2846 93.1078" fill="white"/>
<path fill-rule="evenodd" clip-rule="evenodd" d="M72.7317 90.5498C72.5003 91.0021 72.3961 91.3079 72.3961 91.3079V89.5818C72.3961 89.5818 74.0896 86.2649 78.8001 86.2649C83.5105 86.2649 85.6849 89.5818 85.6849 93.3826C85.6849 101.114 76.5504 108.705 74.425 110.366C74.1451 110.585 73.9868 110.701 73.9868 110.701H87.9621L87.177 112.813H70.8013C70.8013 112.813 70.9514 112.697 71.2188 112.478C73.3888 110.699 83.2815 102.098 83.2845 93.112C83.2845 93.1113 83.2845 93.1106 83.2845 93.1099C83.2845 93.1092 83.2845 93.1085 83.2845 93.1079C83.2832 88.736 81.1832 86.7979 78.3027 86.7979C75.0711 86.7979 73.3887 89.2649 72.7317 90.5498ZM82.9489 93.1099C82.9486 90.9726 82.435 89.4829 81.6192 88.5321C80.8089 87.5879 79.6642 87.1326 78.3027 87.1326C76.2498 87.1326 74.8598 88.1874 73.97 89.2657C73.5246 89.8054 73.2088 90.3466 73.0046 90.7532C72.9027 90.9561 72.829 91.1245 72.7813 91.2409C72.7574 91.299 72.7401 91.3442 72.7289 91.3741C72.7233 91.389 72.7193 91.4001 72.7168 91.4071L72.7142 91.4146L72.7138 91.4157L72.7137 91.4159C72.7137 91.4159 72.7137 91.4159 72.7127 91.4155L72.0605 91.3079V89.5015L72.0971 89.4299L72.3961 89.5818C72.0971 89.4299 72.0972 89.4297 72.0972 89.4296L72.0975 89.4291L72.098 89.428L72.0997 89.4249C72.101 89.4224 72.1027 89.4191 72.1048 89.4151C72.1092 89.407 72.1152 89.3958 72.123 89.3818C72.1387 89.3538 72.1614 89.3143 72.1916 89.2649C72.252 89.1662 72.3423 89.028 72.4652 88.8635C72.7109 88.5347 73.0881 88.0994 73.6187 87.6647C74.6837 86.7922 76.3583 85.9302 78.8001 85.9302C81.2407 85.9302 83.059 86.793 84.2626 88.1793C85.4598 89.5583 86.0205 91.422 86.0205 93.3826C86.0205 97.8905 83.018 102.302 80.0851 105.547C78.6108 107.178 77.1376 108.533 76.0334 109.479C75.6191 109.834 75.2564 110.132 74.9646 110.366H88.4444L87.4104 113.147H69.8173L70.5962 112.548L70.5971 112.549C70.5962 112.548 70.5962 112.548 70.5962 112.548L70.5965 112.547L70.598 112.546L70.6042 112.541C70.6099 112.537 70.6184 112.53 70.6299 112.521C70.6528 112.504 70.6871 112.477 70.732 112.441C70.8219 112.369 70.9544 112.262 71.1234 112.122C71.4614 111.843 71.9452 111.431 72.5263 110.905C73.689 109.854 75.2385 108.347 76.7871 106.529C79.8965 102.878 82.9481 98.0312 82.9489 93.1099Z" fill="white"/>
<path d="M96.1173 98.2739C93.4044 96.7405 91.1848 94.9364 91.1848 91.9598C91.1848 88.6224 94.1854 86.2649 97.9916 86.2649C102.665 86.2649 104.979 89.2169 104.979 91.7876C104.979 94.5141 102.653 96.3756 99.9564 97.5072C103.746 99.3686 107.672 101.476 107.672 106.117C107.672 110.127 104.593 113.333 98.1519 113.333C92.6687 113.333 88.7268 110.705 88.7268 106.289C88.7268 102.107 92.3398 99.7868 96.1255 98.2903L96.1173 98.2739ZM98.1807 112.796C103.113 112.796 105.719 109.926 105.719 106.827C105.719 102.608 100.815 100.841 96.6969 98.5978C93.5031 100.016 90.7368 102.358 90.7368 106.158C90.7368 110.955 95.065 112.796 98.1807 112.796ZM103.582 91.7876C103.582 88.9176 101.485 86.7979 98.004 86.7979C94.9253 86.7979 92.8865 88.7003 92.8865 91.0209C92.8865 94.0508 95.9858 95.5679 99.3316 97.1997C101.642 96.2034 103.582 94.551 103.582 91.7876Z" fill="white"/>
<path fill-rule="evenodd" clip-rule="evenodd" d="M100.351 97.7019C100.219 97.6366 100.088 97.5718 99.9564 97.5072C100.091 97.4506 100.225 97.3921 100.358 97.3318C102.88 96.1871 104.979 94.3777 104.979 91.7876C104.979 89.2169 102.665 86.2649 97.9916 86.2649C94.1854 86.2649 91.1848 88.6224 91.1848 91.9598C91.1848 94.8075 93.2162 96.5819 95.7675 98.0729C95.8831 98.1405 95.9997 98.2074 96.1173 98.2739L96.1255 98.2903C96.118 98.2933 96.1104 98.2963 96.1029 98.2993C96.0415 98.3236 95.9802 98.3481 95.9189 98.3729C95.8598 98.3968 95.8007 98.4209 95.7417 98.4452C92.0993 99.9461 88.7268 102.249 88.7268 106.289C88.7268 110.705 92.6687 113.333 98.1519 113.333C104.593 113.333 107.672 110.127 107.672 106.117C107.672 101.637 104.014 99.5179 100.351 97.7019ZM100.742 97.5224C103.196 96.3534 105.315 94.494 105.315 91.7876C105.315 89.0042 102.821 85.9302 97.9916 85.9302C94.0641 85.9302 90.8492 88.3796 90.8492 91.9598C90.8492 94.9146 92.9089 96.7553 95.3803 98.2332C93.6868 98.9495 92.0437 99.8515 90.7768 101.039C89.3469 102.379 88.3912 104.088 88.3912 106.289C88.3912 108.61 89.4326 110.469 91.1861 111.738C92.9297 113 95.3613 113.668 98.1519 113.668C101.425 113.668 103.889 112.853 105.541 111.487C107.199 110.115 108.007 108.213 108.007 106.117C108.007 103.685 106.972 101.914 105.463 100.524C104.134 99.3009 102.431 98.3665 100.742 97.5224ZM103.579 110.722C104.774 109.68 105.384 108.28 105.384 106.827C105.384 104.873 104.259 103.465 102.556 102.243C101.36 101.384 99.9273 100.65 98.4602 99.8981C97.869 99.5951 97.2721 99.2892 96.6829 98.9712C93.5996 100.376 91.0724 102.616 91.0724 106.158C91.0724 108.44 92.0949 110.002 93.4868 111.005C94.8914 112.016 96.6803 112.462 98.1807 112.462C100.582 112.462 102.383 111.764 103.579 110.722ZM96.6968 98.5978C97.3157 98.9348 97.9523 99.2611 98.5873 99.5865C102.178 101.427 105.719 103.242 105.719 106.827C105.719 109.926 103.113 112.796 98.1807 112.796C95.065 112.796 90.7368 110.955 90.7368 106.158C90.7368 102.358 93.5031 100.016 96.6968 98.5978ZM101.87 88.4618C100.984 87.6407 99.6762 87.1326 98.0039 87.1326C95.0606 87.1326 93.2221 88.9314 93.2221 91.0209C93.2221 92.3998 93.919 93.45 95.0653 94.3743C96.1907 95.2817 97.7092 96.0354 99.3391 96.8307C101.533 95.8516 103.246 94.2988 103.246 91.7876C103.246 90.4371 102.755 89.2815 101.87 88.4618ZM99.3316 97.1997C95.9858 95.5679 92.8865 94.0509 92.8865 91.0209C92.8865 88.7003 94.9253 86.7979 98.0039 86.7979C101.485 86.7979 103.582 88.9176 103.582 91.7876C103.582 94.5511 101.642 96.2034 99.3316 97.1997Z" fill="white"/>
<path d="M114.758 87.2981H106.447V86.761H125.354V87.2981H117.047V112.817H114.758V87.2981Z" fill="white"/>
<path fill-rule="evenodd" clip-rule="evenodd" d="M106.111 87.6328V86.4262H125.69V87.6328H117.383V113.151H114.422V87.6328H106.111ZM114.758 87.2981V112.817H117.047V87.2981H125.354V86.761H106.447V87.2981H114.758Z" fill="white"/>
<path d="M128.631 86.761H130.937V99.2538H147.152V86.761H149.462V112.817H147.152V99.7909H130.937V112.817H128.631V86.761Z" fill="white"/>
<path fill-rule="evenodd" clip-rule="evenodd" d="M128.295 86.4262H131.272V98.9191H146.817V86.4262H149.798V113.151H146.817V100.126H131.272V113.151H128.295V86.4262ZM130.937 99.7909H147.152V112.817H149.462V86.761H147.152V99.2538H130.937V86.761H128.631V112.817H130.937V99.7909Z" fill="white"/>
<path d="M72.4005 127.302H71.7181V120.939H72.4333L74.5913 126.035H74.616L76.7575 120.939H77.4809V127.302H76.8027V122.563H76.7575L74.9366 126.814H74.2666L72.4333 122.563H72.4005V127.302Z" fill="white"/>
<path fill-rule="evenodd" clip-rule="evenodd" d="M72.5683 127.47H71.5504V120.772H72.5447L74.6032 125.633L76.6459 120.772H77.6488V127.47H76.635V123.275L75.0474 126.982H74.1562L72.5683 123.299V127.47ZM72.4334 122.563H72.4005V127.302H71.7182V120.939H72.4334L74.5914 126.035H74.616L76.7575 120.939H77.481V127.302H76.8028V122.563H76.7575L74.9366 126.814H74.2666L72.4334 122.563Z" fill="white"/>
<path d="M81.0116 127.302H80.2429L82.5365 120.951H83.2641L85.5535 127.314H84.7315L84.0738 125.355H81.6569L81.0116 127.302ZM82.8941 121.857H82.8695L81.8871 124.727H83.8765L82.8941 121.857Z" fill="white"/>
<path fill-rule="evenodd" clip-rule="evenodd" d="M81.1328 127.47H80.0042L82.4186 120.784H83.3821L85.792 127.482H84.6107L83.953 125.522H81.7782L81.1328 127.47ZM81.6569 125.355H84.0738L84.7315 127.314H85.5535L83.2641 120.951H82.5365L80.2429 127.302H81.0116L81.6569 125.355ZM82.8695 121.857H82.8941L83.8765 124.727H81.8871L82.8695 121.857ZM82.8818 122.339L82.1217 124.56H83.6419L82.8818 122.339Z" fill="white"/>
<path d="M89.59 127.302H88.8666L86.5442 120.939H87.3827L89.2118 126.404H89.2529L91.0738 120.939H91.9206L89.59 127.302Z" fill="white"/>
<path fill-rule="evenodd" clip-rule="evenodd" d="M89.7073 127.47H88.7491L86.3046 120.772H87.5036L89.2321 125.936L90.9528 120.772H92.1605L89.7073 127.47ZM91.0739 120.939H91.9206L89.59 127.302H88.8666L86.5442 120.939H87.3827L89.2118 126.404H89.253L91.0739 120.939Z" fill="white"/>
<path d="M97.8478 126.626V127.302H94.058V120.939H97.8478V121.616H94.8102V123.711H97.6751V124.387H94.8102V126.626H97.8478Z" fill="white"/>
<path fill-rule="evenodd" clip-rule="evenodd" d="M98.0155 126.458V127.47H93.8901V120.772H98.0155V121.783H94.9779V123.543H97.8429V124.555H94.9779V126.458H98.0155ZM94.8101 124.387H97.6751V123.711H94.8101V121.616H97.8477V120.939H94.0579V127.302H97.8477V126.626H94.8101V124.387Z" fill="white"/>
<path d="M102.71 120.951C103.019 120.946 103.326 120.999 103.615 121.107C103.856 121.192 104.074 121.333 104.252 121.517C104.407 121.69 104.528 121.89 104.609 122.107C104.689 122.337 104.73 122.578 104.729 122.821C104.749 123.233 104.627 123.639 104.383 123.973C104.166 124.256 103.873 124.471 103.537 124.592L104.844 127.302H103.993L102.809 124.748H101.198V127.302H100.446V120.951H102.71ZM101.19 124.092H102.587C102.955 124.118 103.32 124.007 103.611 123.78C103.731 123.666 103.824 123.526 103.885 123.372C103.945 123.218 103.971 123.052 103.96 122.886C103.971 122.713 103.944 122.539 103.882 122.377C103.821 122.214 103.725 122.066 103.602 121.943C103.328 121.714 102.977 121.598 102.62 121.62H101.19V124.092Z" fill="white"/>
<path fill-rule="evenodd" clip-rule="evenodd" d="M103.993 127.302L102.809 124.748H101.198V127.302H100.446V120.951H102.71C103.019 120.946 103.326 120.999 103.615 121.107C103.856 121.192 104.074 121.333 104.252 121.517C104.407 121.69 104.528 121.89 104.609 122.107C104.69 122.337 104.73 122.578 104.729 122.821C104.749 123.233 104.627 123.639 104.383 123.973C104.201 124.212 103.963 124.402 103.692 124.528C103.641 124.552 103.59 124.573 103.537 124.592L104.844 127.302H103.993ZM103.765 124.679L105.111 127.47H103.886L102.702 124.915H101.366V127.47H100.278V120.784H102.709C103.038 120.779 103.364 120.835 103.672 120.95C103.938 121.044 104.178 121.198 104.373 121.401L104.375 121.403L104.377 121.405C104.546 121.594 104.678 121.812 104.767 122.049L104.767 122.051L104.768 122.052C104.854 122.298 104.897 122.557 104.896 122.817C104.917 123.266 104.784 123.708 104.519 124.072L104.518 124.073L104.517 124.075C104.318 124.334 104.06 124.541 103.765 124.679ZM102.62 121.62H101.19V124.092H102.587C102.955 124.118 103.32 124.007 103.611 123.78C103.731 123.666 103.824 123.526 103.885 123.372C103.945 123.218 103.971 123.052 103.96 122.886C103.971 122.713 103.944 122.539 103.883 122.377C103.821 122.214 103.725 122.067 103.602 121.943C103.329 121.714 102.977 121.598 102.62 121.62ZM103.489 122.067C103.249 121.868 102.942 121.768 102.63 121.787L102.625 121.787H101.357V123.925H102.593L102.599 123.925C102.923 123.948 103.244 123.851 103.501 123.654C103.6 123.557 103.678 123.44 103.728 123.311C103.78 123.18 103.802 123.038 103.793 122.897L103.792 122.887L103.793 122.876C103.802 122.726 103.779 122.576 103.726 122.436C103.673 122.298 103.593 122.172 103.489 122.067Z" fill="white"/>
<path d="M108.095 120.939H107.343V127.302H108.095V120.939Z" fill="white"/>
<path fill-rule="evenodd" clip-rule="evenodd" d="M107.175 120.772H108.263V127.47H107.175V120.772ZM108.095 120.939V127.302H107.343V120.939H108.095Z" fill="white"/>
<path d="M111.42 123.674V124.608C111.377 125.185 111.541 125.758 111.885 126.224C112.048 126.403 112.248 126.544 112.472 126.637C112.696 126.73 112.937 126.772 113.18 126.761C113.599 126.786 114.013 126.646 114.33 126.371C114.464 126.253 114.569 126.107 114.64 125.943C114.711 125.779 114.746 125.603 114.742 125.424H115.477C115.474 125.658 115.427 125.889 115.338 126.105C115.236 126.341 115.097 126.56 114.926 126.753C114.726 126.976 114.473 127.146 114.191 127.249C113.855 127.377 113.498 127.44 113.138 127.433C112.803 127.451 112.468 127.395 112.156 127.269C111.844 127.144 111.564 126.952 111.334 126.708C110.857 126.12 110.621 125.375 110.672 124.621V123.657C110.625 122.899 110.864 122.15 111.342 121.558C111.569 121.308 111.849 121.112 112.16 120.982C112.472 120.852 112.809 120.793 113.147 120.808C113.495 120.803 113.841 120.866 114.166 120.992C114.446 121.1 114.696 121.271 114.898 121.492C115.073 121.694 115.212 121.924 115.309 122.173C115.406 122.416 115.457 122.674 115.457 122.936H114.721C114.723 122.748 114.687 122.562 114.617 122.388C114.546 122.215 114.442 122.056 114.31 121.923C114.143 121.773 113.947 121.657 113.735 121.582C113.523 121.507 113.298 121.474 113.073 121.486C112.848 121.498 112.628 121.554 112.425 121.651C112.222 121.747 112.039 121.883 111.889 122.05C111.54 122.523 111.373 123.105 111.416 123.69" fill="white"/>
<path fill-rule="evenodd" clip-rule="evenodd" d="M111.588 124.615L111.588 124.621C111.547 125.155 111.699 125.685 112.015 126.118C112.16 126.276 112.338 126.4 112.536 126.482C112.737 126.566 112.954 126.604 113.172 126.594L113.181 126.593L113.19 126.594C113.565 126.616 113.935 126.491 114.22 126.246C114.334 126.143 114.425 126.017 114.486 125.877C114.548 125.735 114.577 125.582 114.574 125.428L114.57 125.257H115.647L115.645 125.427C115.642 125.681 115.59 125.933 115.493 126.169L115.492 126.17L115.492 126.171C115.383 126.424 115.234 126.657 115.052 126.863L115.051 126.865C114.832 127.108 114.557 127.294 114.249 127.406C113.896 127.54 113.52 127.607 113.141 127.601C112.783 127.618 112.426 127.558 112.093 127.425C111.759 127.29 111.458 127.084 111.211 126.822L111.207 126.818L111.204 126.813C110.701 126.194 110.452 125.409 110.504 124.615V123.662C110.456 122.864 110.708 122.076 111.212 121.453L111.215 121.449L111.218 121.446C111.461 121.178 111.761 120.967 112.096 120.827C112.429 120.689 112.789 120.625 113.149 120.64C113.518 120.636 113.883 120.702 114.227 120.836C114.531 120.953 114.803 121.139 115.022 121.38L115.023 121.381L115.025 121.383C115.212 121.599 115.361 121.845 115.465 122.111C115.57 122.373 115.624 122.653 115.624 122.936L115.625 123.103H114.552L114.553 122.934C114.555 122.769 114.523 122.605 114.461 122.451C114.4 122.299 114.309 122.161 114.194 122.044C114.044 121.91 113.869 121.807 113.679 121.74C113.488 121.672 113.285 121.643 113.082 121.653C112.879 121.664 112.68 121.714 112.497 121.802C112.316 121.888 112.154 122.008 112.019 122.156C111.698 122.594 111.544 123.132 111.583 123.674H111.588V124.615ZM111.42 123.674L111.416 123.69C111.416 123.685 111.415 123.679 111.415 123.674C111.376 123.094 111.543 122.519 111.889 122.05C112.039 121.883 112.222 121.747 112.425 121.651C112.628 121.554 112.848 121.498 113.073 121.486C113.298 121.474 113.523 121.507 113.735 121.582C113.947 121.657 114.143 121.773 114.31 121.923C114.442 122.056 114.546 122.215 114.617 122.388C114.684 122.554 114.719 122.73 114.721 122.909C114.721 122.918 114.721 122.927 114.721 122.936H115.457C115.457 122.88 115.454 122.824 115.45 122.768C115.433 122.564 115.385 122.364 115.309 122.173C115.212 121.924 115.073 121.694 114.898 121.492C114.696 121.271 114.446 121.1 114.166 120.992C113.841 120.866 113.495 120.803 113.147 120.808C112.809 120.793 112.472 120.852 112.16 120.982C111.849 121.112 111.569 121.308 111.342 121.558C110.864 122.15 110.625 122.899 110.672 123.657V124.621C110.621 125.375 110.857 126.12 111.334 126.708C111.564 126.952 111.844 127.144 112.156 127.269C112.467 127.395 112.803 127.451 113.138 127.433C113.498 127.44 113.855 127.377 114.191 127.249C114.473 127.146 114.726 126.976 114.926 126.753C115.097 126.56 115.236 126.341 115.337 126.105C115.405 125.941 115.449 125.768 115.467 125.592C115.473 125.536 115.476 125.48 115.477 125.424H114.741C114.742 125.444 114.742 125.464 114.741 125.484C114.738 125.642 114.703 125.798 114.64 125.943C114.569 126.107 114.464 126.253 114.33 126.371C114.012 126.646 113.599 126.786 113.18 126.761C112.937 126.772 112.696 126.73 112.472 126.637C112.248 126.544 112.048 126.403 111.885 126.224C111.541 125.758 111.377 125.185 111.42 124.608V123.674Z" fill="white"/>
<path d="M122.161 120.939L119.768 123.641L122.296 127.302H121.343L119.214 124.154L118.408 125.027V127.302H117.66V120.939H118.408V124.047H118.437L121.269 120.939H122.161Z" fill="white"/>
<path fill-rule="evenodd" clip-rule="evenodd" d="M122.533 120.772L119.981 123.654L122.616 127.47H121.253L119.193 124.423L118.576 125.092V127.47H117.492V120.772H118.576V123.646L121.194 120.772H122.533ZM118.437 124.047H118.408V120.939H117.66V127.302H118.408V125.027L119.213 124.153L121.343 127.302H122.296L119.768 123.641L122.161 120.939H121.269L118.437 124.047Z" fill="white"/>
<path d="M80.4032 132.841V133.571C80.3704 134.021 80.4938 134.468 80.7526 134.838C80.8709 134.975 81.0191 135.083 81.1859 135.154C81.3526 135.225 81.5334 135.257 81.7144 135.248C81.8701 135.257 82.0259 135.235 82.1728 135.183C82.3197 135.131 82.4545 135.05 82.5694 134.945C82.6692 134.849 82.7481 134.733 82.8011 134.606C82.8542 134.478 82.8802 134.341 82.8777 134.203H83.4408C83.4402 134.385 83.4053 134.566 83.338 134.736C83.2636 134.92 83.161 135.091 83.0339 135.244C82.8879 135.423 82.7002 135.564 82.4872 135.654C82.2374 135.752 81.9707 135.801 81.7021 135.797C81.4505 135.81 81.1992 135.765 80.9672 135.667C80.7352 135.57 80.5283 135.421 80.3621 135.232C80.0041 134.763 79.8289 134.18 79.8689 133.592V132.841C79.8323 132.253 80.0088 131.671 80.3662 131.201C80.5305 131.008 80.7371 130.854 80.97 130.752C81.203 130.651 81.4563 130.604 81.7103 130.615C81.9708 130.612 82.2294 130.661 82.4708 130.758C82.6821 130.849 82.8683 130.99 83.0133 131.168C83.1495 131.326 83.2567 131.507 83.3298 131.701C83.4034 131.891 83.4411 132.093 83.4408 132.296H82.8941C82.8945 132.001 82.7795 131.717 82.5735 131.505C82.463 131.389 82.3286 131.298 82.1797 131.238C82.0307 131.179 81.8706 131.152 81.7103 131.16C81.5301 131.154 81.351 131.192 81.1881 131.269C81.0251 131.346 80.8828 131.46 80.7732 131.603C80.515 131.976 80.3905 132.426 80.4197 132.878" fill="white"/>
<path fill-rule="evenodd" clip-rule="evenodd" d="M80.571 133.577L80.5705 133.583C80.5407 133.992 80.6518 134.398 80.8852 134.735C80.9859 134.85 81.1111 134.94 81.2517 135C81.3949 135.061 81.5502 135.089 81.7057 135.081L81.715 135.08L81.7243 135.081C81.8574 135.089 81.9908 135.07 82.1165 135.025C82.2415 134.981 82.3564 134.912 82.4544 134.823C82.5369 134.743 82.6021 134.647 82.6461 134.542C82.6903 134.435 82.712 134.321 82.7099 134.206L82.7067 134.035H83.6091L83.6085 134.203C83.6078 134.406 83.569 134.608 83.494 134.797L83.4936 134.798C83.4128 134.998 83.3014 135.184 83.1635 135.35C83.0003 135.55 82.7906 135.707 82.5526 135.808L82.5508 135.809L82.5488 135.81C82.2803 135.916 81.9937 135.968 81.705 135.965C81.4299 135.978 81.1554 135.929 80.9017 135.822C80.6464 135.714 80.4189 135.55 80.236 135.342L80.2321 135.338L80.2286 135.333C79.8471 134.833 79.6598 134.213 79.701 133.586V132.846C79.6633 132.22 79.8518 131.6 80.2326 131.1L80.2352 131.097L80.2381 131.093C80.4189 130.88 80.6463 130.711 80.9028 130.599C81.1578 130.488 81.4349 130.436 81.713 130.448C81.9942 130.445 82.2732 130.498 82.5338 130.603L82.5355 130.604L82.5372 130.605C82.7726 130.706 82.9801 130.863 83.142 131.061C83.2901 131.233 83.4068 131.43 83.4866 131.642C83.5675 131.851 83.6088 132.072 83.6085 132.296L83.6083 132.463H82.7261L82.7263 132.296C82.7266 132.044 82.6285 131.802 82.4529 131.621L82.4518 131.62C82.3579 131.521 82.2438 131.444 82.1173 131.394C81.9907 131.343 81.8548 131.321 81.7186 131.327L81.7118 131.328L81.7048 131.328C81.5513 131.323 81.3987 131.354 81.2598 131.42C81.1222 131.485 81.0019 131.581 80.9088 131.702C80.6737 132.043 80.5603 132.454 80.5871 132.867L80.571 132.868V133.577ZM80.4196 132.878C80.4188 132.866 80.4181 132.854 80.4176 132.841C80.3973 132.401 80.5219 131.966 80.7731 131.603C80.8828 131.46 81.025 131.346 81.188 131.269C81.351 131.192 81.53 131.154 81.7103 131.16C81.8705 131.152 82.0306 131.179 82.1796 131.238C82.3286 131.298 82.4629 131.389 82.5734 131.505C82.7788 131.716 82.8937 131.999 82.8941 132.293C82.8941 132.294 82.8941 132.295 82.8941 132.296H83.4407C83.4407 132.295 83.4407 132.293 83.4407 132.292C83.4407 132.237 83.4379 132.183 83.4324 132.129C83.4175 131.983 83.3831 131.839 83.3298 131.702C83.2566 131.507 83.1495 131.326 83.0133 131.169C82.8682 130.99 82.6821 130.849 82.4707 130.759C82.2293 130.661 81.9708 130.612 81.7103 130.615C81.4562 130.604 81.203 130.651 80.97 130.753C80.737 130.854 80.5304 131.008 80.3662 131.201C80.0087 131.671 79.8322 132.253 79.8688 132.841V133.592C79.8288 134.18 80.0041 134.763 80.3621 135.232C80.5283 135.421 80.7351 135.569 80.9672 135.667C81.1992 135.765 81.4504 135.81 81.7021 135.797C81.9706 135.801 82.2373 135.752 82.4871 135.654C82.7002 135.564 82.8878 135.423 83.0338 135.244C83.161 135.091 83.2636 134.92 83.338 134.736C83.3846 134.618 83.4156 134.495 83.4305 134.37C83.4371 134.314 83.4405 134.259 83.4407 134.203H82.8776C82.8778 134.215 82.8778 134.227 82.8776 134.24C82.8753 134.365 82.8494 134.489 82.8011 134.606C82.748 134.733 82.6691 134.849 82.5693 134.945C82.4545 135.05 82.3196 135.131 82.1727 135.183C82.0259 135.235 81.87 135.257 81.7144 135.248C81.5333 135.257 81.3525 135.225 81.1858 135.154C81.0191 135.083 80.8709 134.975 80.7526 134.838C80.4937 134.468 80.3704 134.021 80.4032 133.571V132.841L80.4196 132.878Z" fill="white"/>
<path d="M89.0269 135.691H88.4762V133.366H86.0223V135.691H85.4633V130.705H86.0223V132.841H88.4762V130.705H89.0269V135.691Z" fill="white"/>
<path fill-rule="evenodd" clip-rule="evenodd" d="M89.1947 135.858H88.3083V133.533H86.19V135.858H85.2954V130.537H86.19V132.674H88.3083V130.537H89.1947V135.858ZM88.4761 132.841H86.0222V130.705H85.4632V135.691H86.0222V133.366H88.4761V135.691H89.0269V130.705H88.4761V132.841Z" fill="white"/>
<path d="M94.1072 135.162V135.691H91.2875V130.705H94.1072V131.234H91.8465V132.874H93.9798V133.407H91.8465V135.162H94.1072Z" fill="white"/>
<path fill-rule="evenodd" clip-rule="evenodd" d="M94.2751 134.994V135.858H91.1198V130.537H94.2751V131.401H92.0143V132.706H94.1476V133.574H92.0143V134.994H94.2751ZM91.8466 133.407H93.9799V132.874H91.8466V131.234H94.1073V130.705H91.2875V135.691H94.1073V135.162H91.8466V133.407Z" fill="white"/>
<path d="M98.9616 135.162V135.691H96.187V130.705H96.746V135.162H98.9616Z" fill="white"/>
<path fill-rule="evenodd" clip-rule="evenodd" d="M99.1294 134.994V135.858H96.0193V130.537H96.9139V134.994H99.1294ZM98.9616 135.162H96.7461V130.705H96.1871V135.691H98.9616V135.162Z" fill="white"/>
<path d="M100.343 134.354H100.902C100.912 134.481 100.949 134.605 101.009 134.718C101.069 134.831 101.151 134.93 101.251 135.01C101.497 135.191 101.797 135.28 102.102 135.264C102.396 135.28 102.687 135.193 102.924 135.018C103.023 134.939 103.102 134.837 103.154 134.722C103.207 134.607 103.232 134.481 103.228 134.354C103.232 134.261 103.218 134.168 103.185 134.081C103.153 133.994 103.103 133.914 103.039 133.846C102.871 133.693 102.666 133.586 102.443 133.538L101.592 133.301C101.294 133.226 101.023 133.072 100.807 132.854C100.702 132.74 100.62 132.607 100.567 132.462C100.514 132.317 100.491 132.163 100.499 132.009C100.493 131.733 100.575 131.461 100.733 131.234C100.882 131.018 101.089 130.848 101.329 130.742C101.579 130.637 101.847 130.584 102.118 130.586C102.316 130.586 102.513 130.615 102.702 130.672C102.885 130.728 103.058 130.811 103.216 130.918C103.377 131.031 103.506 131.184 103.59 131.361C103.69 131.558 103.744 131.776 103.746 131.997H103.171C103.155 131.752 103.043 131.523 102.858 131.361C102.641 131.188 102.367 131.101 102.09 131.119C101.82 131.109 101.554 131.186 101.333 131.341C101.238 131.415 101.162 131.511 101.111 131.621C101.061 131.731 101.039 131.851 101.046 131.972C101.046 132.353 101.268 132.608 101.72 132.731L102.542 132.964C102.882 133.05 103.195 133.217 103.454 133.452C103.563 133.567 103.647 133.702 103.701 133.85C103.755 133.998 103.779 134.156 103.771 134.313C103.782 134.523 103.743 134.732 103.657 134.923C103.57 135.114 103.439 135.282 103.273 135.412C102.908 135.678 102.463 135.812 102.012 135.793C101.747 135.799 101.483 135.755 101.235 135.662C101.035 135.589 100.857 135.469 100.713 135.314C100.591 135.179 100.495 135.023 100.429 134.854C100.364 134.695 100.329 134.526 100.326 134.354" fill="white"/>
<path fill-rule="evenodd" clip-rule="evenodd" d="M101.056 134.187L101.069 134.34C101.078 134.445 101.108 134.547 101.157 134.64C101.206 134.731 101.273 134.812 101.353 134.878C101.567 135.034 101.829 135.111 102.093 135.097L102.102 135.097L102.111 135.097C102.365 135.111 102.616 135.036 102.821 134.886C102.898 134.823 102.96 134.743 103.002 134.652C103.044 134.561 103.064 134.461 103.06 134.36L103.06 134.353L103.061 134.347C103.064 134.276 103.053 134.206 103.028 134.139C103.004 134.075 102.968 134.016 102.921 133.965C102.776 133.834 102.599 133.743 102.408 133.702L102.403 133.701L101.549 133.462C101.222 133.38 100.924 133.21 100.688 132.971L100.686 132.969L100.684 132.968C100.564 132.838 100.47 132.686 100.41 132.52C100.35 132.356 100.323 132.181 100.331 132.007C100.326 131.697 100.418 131.394 100.595 131.139C100.762 130.897 100.993 130.707 101.262 130.589L101.263 130.588L101.264 130.588C101.535 130.475 101.825 130.417 102.119 130.419C102.333 130.418 102.546 130.45 102.751 130.512C102.95 130.573 103.138 130.663 103.31 130.78L103.311 130.781L103.312 130.782C103.496 130.911 103.644 131.085 103.741 131.288C103.852 131.507 103.911 131.749 103.914 131.995L103.916 132.164H103.013L103.003 132.007C102.99 131.808 102.899 131.622 102.75 131.489C102.566 131.344 102.335 131.271 102.1 131.286L102.092 131.287L102.083 131.287C101.851 131.277 101.623 131.344 101.433 131.475C101.36 131.533 101.302 131.606 101.264 131.69C101.225 131.776 101.208 131.869 101.213 131.963L101.213 131.967V131.972C101.213 132.128 101.258 132.246 101.339 132.338C101.422 132.432 101.558 132.513 101.764 132.569L101.766 132.57L102.585 132.803C102.951 132.895 103.288 133.075 103.567 133.328L103.572 133.333L103.576 133.337C103.7 133.469 103.796 133.623 103.859 133.793C103.92 133.959 103.947 134.136 103.939 134.313C103.95 134.546 103.906 134.779 103.809 134.992C103.712 135.208 103.564 135.397 103.377 135.543L103.375 135.545L103.372 135.547C102.978 135.834 102.498 135.98 102.01 135.961C101.725 135.967 101.443 135.919 101.176 135.819C100.952 135.737 100.751 135.602 100.589 135.427L100.588 135.425C100.453 135.276 100.347 135.103 100.273 134.916C100.201 134.739 100.162 134.549 100.158 134.357L100.326 134.354C100.329 134.526 100.364 134.695 100.429 134.854C100.495 135.023 100.591 135.179 100.713 135.314C100.856 135.469 101.035 135.589 101.235 135.662C101.483 135.755 101.746 135.799 102.011 135.793C102.463 135.812 102.908 135.678 103.273 135.412C103.439 135.282 103.57 135.114 103.657 134.923C103.743 134.732 103.782 134.523 103.771 134.313C103.779 134.156 103.755 133.998 103.701 133.85C103.647 133.702 103.563 133.567 103.454 133.452C103.195 133.217 102.881 133.05 102.542 132.964L101.72 132.731C101.267 132.608 101.046 132.353 101.046 131.972C101.039 131.852 101.061 131.731 101.111 131.621C101.161 131.511 101.238 131.415 101.333 131.341C101.554 131.186 101.82 131.109 102.09 131.119C102.367 131.101 102.641 131.188 102.858 131.361C103.043 131.523 103.155 131.752 103.171 131.997H103.746C103.745 131.941 103.742 131.885 103.734 131.829C103.713 131.667 103.665 131.508 103.59 131.361C103.506 131.184 103.377 131.031 103.216 130.918C103.058 130.811 102.885 130.728 102.702 130.672C102.513 130.615 102.316 130.586 102.118 130.586C101.847 130.584 101.579 130.637 101.329 130.742C101.088 130.848 100.882 131.018 100.733 131.234C100.575 131.461 100.493 131.733 100.499 132.009C100.491 132.163 100.514 132.317 100.567 132.462C100.62 132.608 100.702 132.741 100.807 132.854C101.023 133.072 101.294 133.226 101.592 133.301L102.443 133.538C102.665 133.586 102.871 133.693 103.039 133.846C103.103 133.914 103.153 133.994 103.185 134.081C103.218 134.168 103.232 134.261 103.228 134.354C103.232 134.481 103.207 134.607 103.154 134.722C103.101 134.837 103.023 134.939 102.924 135.018C102.687 135.193 102.396 135.28 102.102 135.264C101.797 135.28 101.497 135.191 101.251 135.01C101.151 134.93 101.069 134.831 101.009 134.718C100.949 134.605 100.912 134.482 100.902 134.354H100.326L100.343 134.354V134.187H101.056Z" fill="white"/>
<path d="M108.613 135.162V135.691H105.793V130.705H108.613V131.234H106.352V132.874H108.486V133.407H106.352V135.162H108.613Z" fill="white"/>
<path fill-rule="evenodd" clip-rule="evenodd" d="M108.781 134.994V135.858H105.625V130.537H108.781V131.401H106.52V132.706H108.653V133.574H106.52V134.994H108.781ZM106.352 133.407H108.485V132.874H106.352V131.234H108.613V130.705H105.793V135.691H108.613V135.162H106.352V133.407Z" fill="white"/>
<path d="M110.779 135.712H110.208L111.918 130.726H112.456L114.162 135.712H113.558L113.069 134.174H111.272L110.779 135.712ZM112.181 131.443L111.449 133.703H112.929L112.181 131.443Z" fill="white"/>
<path fill-rule="evenodd" clip-rule="evenodd" d="M110.901 135.879H109.973L111.798 130.559H112.576L114.396 135.879H113.435L112.946 134.341H111.395L110.901 135.879ZM111.272 134.174H113.069L113.558 135.712H114.162L112.456 130.726H111.918L110.208 135.712H110.779L111.272 134.174ZM111.449 133.703H112.929L112.181 131.443L111.449 133.703ZM112.182 131.982L111.68 133.535H112.697L112.182 131.982Z" fill="white"/>
</svg>
